# xmcd
#
# Track frame offsets: 
#        150
#        15942
#        35317
#        52672
#        68202
#        83762
#        98053
#        126711
#
# Disc length: 1994 seconds
#
# Revision: 0
# Processed by: cddbd v1.5.2PL0 Copyright (c) Steve Scherf et al.
# Submitted via: ExactAudioCopy v0.99pb5
#
DISCID=5907c808
DTITLE=Prison Book Club - Required Reading
DYEAR=2009
DGENRE=
TTITLE0=Everything's Fine
TTITLE1=Home Ain't Here
TTITLE2=Make My Name
TTITLE3=Heart Of Lead
TTITLE4=Crutch
TTITLE5=Cold Front
TTITLE6=When I Go
TTITLE7=Biting Bullets
EXTD=
EXTT0=
EXTT1=
EXTT2=
EXTT3=
EXTT4=
EXTT5=
EXTT6=
EXTT7=
PLAYORDER=
